<svg width="974" height="537" viewBox="0 0 974 537" fill="none" xmlns="http://www.w3.org/2000/svg">
<rect width="974" height="537" fill="white"/>
<rect x="60" y="70" width="356" height="63" fill="#E93C3C"/>
<path d="M91.3341 96.3842H96.3447C96.2723 91.9773 92.6501 88.9347 87.1444 88.9347C81.7233 88.9347 77.751 91.929 77.7751 96.4205C77.763 100.067 80.3348 102.156 84.5123 103.158L87.2048 103.834C89.8973 104.486 91.3944 105.259 91.4065 106.925C91.3944 108.736 89.68 109.967 87.0237 109.967C84.3071 109.967 82.3511 108.712 82.1821 106.237H77.1231C77.2559 111.585 81.0834 114.35 87.0841 114.35C93.121 114.35 96.6707 111.464 96.6828 106.937C96.6707 102.82 93.5677 100.634 89.2694 99.6683L87.0478 99.1371C84.8987 98.642 83.0997 97.8452 83.1359 96.0703C83.1359 94.4766 84.5486 93.3054 87.1082 93.3054C89.6075 93.3054 91.1409 94.4403 91.3341 96.3842ZM98.9175 93.5831H106.488V114H111.655V93.5831H119.226V89.2727H98.9175V93.5831ZM123.438 114L125.273 108.362H134.195L136.031 114H141.633L133.109 89.2727H126.372L117.835 114H123.438ZM126.601 104.281L129.644 94.9233H129.837L132.879 104.281H126.601ZM144.269 114H154.834C160.388 114 163.346 111.102 163.346 107.166C163.346 103.508 160.726 101.298 157.913 101.165V100.924C160.484 100.344 162.38 98.5213 162.38 95.6115C162.38 91.9048 159.627 89.2727 154.17 89.2727H144.269V114ZM149.497 109.726V103.158H153.88C156.391 103.158 157.949 104.607 157.949 106.647C157.949 108.506 156.681 109.726 153.759 109.726H149.497ZM149.497 99.62V93.4986H153.469C155.788 93.4986 157.104 94.6939 157.104 96.4808C157.104 98.4368 155.51 99.62 153.373 99.62H149.497ZM172.995 93.5831H180.565V114H185.733V93.5831H193.303V89.2727H172.995V93.5831ZM196.308 114H201.536V105.234H205.351L210.036 114H215.807L210.555 104.389C213.368 103.182 214.926 100.731 214.926 97.3501C214.926 92.4361 211.678 89.2727 206.063 89.2727H196.308V114ZM201.536 101.033V93.5469H205.061C208.08 93.5469 209.541 94.8871 209.541 97.3501C209.541 99.8011 208.08 101.033 205.085 101.033H201.536ZM223.508 89.2727H218.28V114H223.508V89.2727ZM227.47 89.2727V114H232.541V97.8452H232.746L239.145 113.879H242.598L248.997 97.9055H249.202V114H254.274V89.2727H247.826L241.016 105.886H240.727L233.917 89.2727H227.47ZM265.77 114H270.998V103.786H281.056V99.4751H270.998V93.5831H282.142V89.2727H265.77V114ZM286.493 114L288.328 108.362H297.251L299.086 114H304.688L296.164 89.2727H289.427L280.891 114H286.493ZM289.656 104.281L292.699 94.9233H292.892L295.935 104.281H289.656ZM312.552 89.2727H307.324V114H312.552V89.2727ZM316.514 114H332.343V109.69H321.742V89.2727H316.514V114ZM350.738 89.2727V104.884C350.738 107.71 348.758 109.75 345.715 109.75C342.685 109.75 340.693 107.71 340.693 104.884V89.2727H335.465V105.331C335.465 110.74 339.546 114.35 345.715 114.35C351.861 114.35 355.966 110.74 355.966 105.331V89.2727H350.738ZM359.927 114H365.155V105.234H368.971L373.655 114H379.427L374.175 104.389C376.988 103.182 378.545 100.731 378.545 97.3501C378.545 92.4361 375.297 89.2727 369.683 89.2727H359.927V114ZM365.155 101.033V93.5469H368.681C371.699 93.5469 373.16 94.8871 373.16 97.3501C373.16 99.8011 371.699 101.033 368.705 101.033H365.155ZM381.9 114H398.61V109.69H387.128V103.786H397.705V99.4751H387.128V93.5831H398.562V89.2727H381.9V114Z" fill="white"/>
<rect x="60" y="153" width="410" height="63" fill="#FFC652"/>
<path d="M76.6681 197H87.2328C92.7867 197 95.7448 194.102 95.7448 190.166C95.7448 186.508 93.1248 184.298 90.3116 184.165V183.924C92.8833 183.344 94.7789 181.521 94.7789 178.612C94.7789 174.905 92.0261 172.273 86.5687 172.273H76.6681V197ZM81.8961 192.726V186.158H86.2789C88.7903 186.158 90.3478 187.607 90.3478 189.647C90.3478 191.506 89.0801 192.726 86.1582 192.726H81.8961ZM81.8961 182.62V176.499H85.8684C88.1866 176.499 89.5026 177.694 89.5026 179.481C89.5026 181.437 87.9089 182.62 85.7718 182.62H81.8961ZM98.8066 197H104.035V188.234H107.85L112.535 197H118.306L113.054 187.389C115.867 186.182 117.425 183.731 117.425 180.35C117.425 175.436 114.177 172.273 108.562 172.273H98.8066V197ZM104.035 184.033V176.547H107.56C110.579 176.547 112.04 177.887 112.04 180.35C112.04 182.801 110.579 184.033 107.584 184.033H104.035ZM125.041 197L126.876 191.362H135.799L137.634 197H143.237L134.712 172.273H127.975L119.439 197H125.041ZM128.205 187.281L131.247 177.923H131.44L134.483 187.281H128.205ZM145.873 197H151.101V189.973L153.672 186.834L160.446 197H166.7L157.415 183.344L166.591 172.273H160.325L151.427 183.175H151.101V172.273H145.873V197ZM168.974 197H185.684V192.69H174.202V186.786H184.779V182.475H174.202V176.583H185.636V172.273H168.974V197ZM196.982 197H202.21V188.983H206.605C212.291 188.983 215.6 185.59 215.6 180.652C215.6 175.738 212.352 172.273 206.737 172.273H196.982V197ZM202.21 184.793V176.547H205.735C208.754 176.547 210.215 178.189 210.215 180.652C210.215 183.103 208.754 184.793 205.759 184.793H202.21ZM218.655 197H223.883V188.234H227.699L232.383 197H238.155L232.902 187.389C235.716 186.182 237.273 183.731 237.273 180.35C237.273 175.436 234.025 172.273 228.411 172.273H218.655V197ZM223.883 184.033V176.547H227.409C230.427 176.547 231.888 177.887 231.888 180.35C231.888 182.801 230.427 184.033 227.433 184.033H223.883ZM240.628 197H257.338V192.69H245.856V186.786H256.433V182.475H245.856V176.583H257.29V172.273H240.628V197ZM274.52 179.384H279.531C279.458 174.977 275.836 171.935 270.331 171.935C264.909 171.935 260.937 174.929 260.961 179.42C260.949 183.067 263.521 185.156 267.699 186.158L270.391 186.834C273.083 187.486 274.581 188.259 274.593 189.925C274.581 191.736 272.866 192.967 270.21 192.967C267.493 192.967 265.537 191.712 265.368 189.237H260.309C260.442 194.585 264.27 197.35 270.27 197.35C276.307 197.35 279.857 194.464 279.869 189.937C279.857 185.82 276.754 183.634 272.456 182.668L270.234 182.137C268.085 181.642 266.286 180.845 266.322 179.07C266.322 177.477 267.735 176.305 270.294 176.305C272.794 176.305 274.327 177.44 274.52 179.384ZM296.46 179.384H301.47C301.398 174.977 297.776 171.935 292.27 171.935C286.849 171.935 282.876 174.929 282.901 179.42C282.889 183.067 285.46 185.156 289.638 186.158L292.33 186.834C295.023 187.486 296.52 188.259 296.532 189.925C296.52 191.736 294.805 192.967 292.149 192.967C289.433 192.967 287.477 191.712 287.308 189.237H282.249C282.381 194.585 286.209 197.35 292.21 197.35C298.246 197.35 301.796 194.464 301.808 189.937C301.796 185.82 298.693 183.634 294.395 182.668L292.173 182.137C290.024 181.642 288.225 180.845 288.261 179.07C288.261 177.477 289.674 176.305 292.234 176.305C294.733 176.305 296.266 177.44 296.46 179.384ZM320.258 172.273V187.884C320.258 190.71 318.278 192.75 315.235 192.75C312.205 192.75 310.213 190.71 310.213 187.884V172.273H304.985V188.331C304.985 193.74 309.066 197.35 315.235 197.35C321.381 197.35 325.486 193.74 325.486 188.331V172.273H320.258ZM329.447 197H334.675V188.234H338.491L343.175 197H348.947L343.695 187.389C346.508 186.182 348.065 183.731 348.065 180.35C348.065 175.436 344.818 172.273 339.203 172.273H329.447V197ZM334.675 184.033V176.547H338.201C341.22 176.547 342.68 177.887 342.68 180.35C342.68 182.801 341.22 184.033 338.225 184.033H334.675ZM351.42 197H368.13V192.69H356.648V186.786H367.225V182.475H356.648V176.583H368.082V172.273H351.42V197ZM379.427 197H395.256V192.69H384.655V172.273H379.427V197ZM420.139 184.636C420.139 176.547 415.116 171.935 408.56 171.935C401.967 171.935 396.981 176.547 396.981 184.636C396.981 192.69 401.967 197.338 408.56 197.338C415.116 197.338 420.139 192.726 420.139 184.636ZM414.838 184.636C414.838 189.876 412.351 192.714 408.56 192.714C404.757 192.714 402.281 189.876 402.281 184.636C402.281 179.396 404.757 176.559 408.56 176.559C412.351 176.559 414.838 179.396 414.838 184.636ZM428.308 197H433.403L438.1 180.833H438.293L443.002 197H448.097L455.172 172.273H449.461L445.368 189.49H445.151L440.647 172.273H435.757L431.242 189.454H431.036L426.943 172.273H421.232L428.308 197Z" fill="black"/>
<rect x="60" y="319" width="355" height="63" fill="#2B79E3"/>
<path d="M80.8978 363L82.7331 357.362H91.6556L93.4909 363H99.0931L90.569 338.273H83.8318L75.2956 363H80.8978ZM84.0612 353.281L87.1038 343.923H87.297L90.3396 353.281H84.0612ZM117.003 338.273V353.884C117.003 356.71 115.023 358.75 111.98 358.75C108.95 358.75 106.957 356.71 106.957 353.884V338.273H101.729V354.331C101.729 359.74 105.81 363.35 111.98 363.35C118.126 363.35 122.231 359.74 122.231 354.331V338.273H117.003ZM131.094 338.273H125.166L132.76 350.636L125.021 363H131.01L136.081 354.56H136.274L141.345 363H147.358L139.642 350.636L147.189 338.273H141.284L136.274 346.7H136.081L131.094 338.273ZM157.686 363H162.914V352.786H172.971V348.475H162.914V342.583H174.058V338.273H157.686V363ZM177.235 363H193.063V358.69H182.463V338.273H177.235V363ZM217.946 350.636C217.946 342.547 212.923 337.935 206.367 337.935C199.775 337.935 194.788 342.547 194.788 350.636C194.788 358.69 199.775 363.338 206.367 363.338C212.923 363.338 217.946 358.726 217.946 350.636ZM212.645 350.636C212.645 355.876 210.158 358.714 206.367 358.714C202.564 358.714 200.088 355.876 200.088 350.636C200.088 345.396 202.564 342.559 206.367 342.559C210.158 342.559 212.645 345.396 212.645 350.636ZM244.201 350.636C244.201 342.547 239.179 337.935 232.623 337.935C226.03 337.935 221.044 342.547 221.044 350.636C221.044 358.69 226.03 363.338 232.623 363.338C239.179 363.338 244.201 358.726 244.201 350.636ZM238.901 350.636C238.901 355.876 236.414 358.714 232.623 358.714C228.819 358.714 226.344 355.876 226.344 350.636C226.344 345.396 228.819 342.559 232.623 342.559C236.414 342.559 238.901 345.396 238.901 350.636ZM256.5 363C264.034 363 268.598 358.339 268.598 350.612C268.598 342.909 264.034 338.273 256.572 338.273H247.734V363H256.5ZM252.962 358.521V342.752H256.294C260.931 342.752 263.382 345.119 263.382 350.612C263.382 356.13 260.931 358.521 256.282 358.521H252.962ZM279.66 363H295.488V358.69H284.888V338.273H279.66V363ZM303.839 338.273H298.611V363H303.839V338.273ZM324.196 346.266H329.509C328.833 341.376 324.522 337.935 318.932 337.935C312.4 337.935 307.365 342.643 307.365 350.661C307.365 358.484 312.074 363.338 319.041 363.338C325.283 363.338 329.738 359.39 329.738 352.882V349.767H319.391V353.703H324.703C324.631 356.77 322.542 358.714 319.065 358.714C315.141 358.714 312.666 355.78 312.666 350.612C312.666 345.469 315.237 342.559 319.017 342.559C321.709 342.559 323.532 343.947 324.196 346.266ZM333.325 363H338.553V352.786H349.166V363H354.382V338.273H349.166V348.475H338.553V338.273H333.325V363ZM357.411 342.583H364.981V363H370.148V342.583H377.719V338.273H357.411V342.583ZM394.137 345.384H399.148C399.076 340.977 395.453 337.935 389.948 337.935C384.527 337.935 380.554 340.929 380.578 345.42C380.566 349.067 383.138 351.156 387.316 352.158L390.008 352.834C392.701 353.486 394.198 354.259 394.21 355.925C394.198 357.736 392.483 358.967 389.827 358.967C387.11 358.967 385.154 357.712 384.985 355.237H379.926C380.059 360.585 383.887 363.35 389.887 363.35C395.924 363.35 399.474 360.464 399.486 355.937C399.474 351.82 396.371 349.634 392.073 348.668L389.851 348.137C387.702 347.642 385.903 346.845 385.939 345.07C385.939 343.477 387.352 342.305 389.911 342.305C392.411 342.305 393.944 343.44 394.137 345.384Z" fill="white"/>
<rect x="60" y="236" width="291" height="63" fill="#8B4FC3"/>
<path d="M99.657 263.93C98.9688 258.219 94.6464 254.935 88.9233 254.935C82.3914 254.935 77.4049 259.547 77.4049 267.636C77.4049 275.702 82.3069 280.338 88.9233 280.338C95.2621 280.338 99.0895 276.124 99.657 271.572L94.3687 271.548C93.8736 274.192 91.7969 275.714 89.0079 275.714C85.2529 275.714 82.7053 272.925 82.7053 267.636C82.7053 262.493 85.2167 259.559 89.0441 259.559C91.9056 259.559 93.9702 261.213 94.3687 263.93H99.657ZM106.863 280L108.698 274.362H117.621L119.456 280H125.058L116.534 255.273H109.797L101.261 280H106.863ZM110.027 270.281L113.069 260.923H113.262L116.305 270.281H110.027ZM127.695 280H132.923V271.234H136.738L141.423 280H147.194L141.942 270.389C144.755 269.182 146.313 266.731 146.313 263.35C146.313 258.436 143.065 255.273 137.45 255.273H127.695V280ZM132.923 267.033V259.547H136.448C139.467 259.547 140.928 260.887 140.928 263.35C140.928 265.801 139.467 267.033 136.472 267.033H132.923ZM166.063 263.266H171.376C170.7 258.376 166.389 254.935 160.799 254.935C154.267 254.935 149.233 259.643 149.233 267.661C149.233 275.484 153.941 280.338 160.908 280.338C167.15 280.338 171.605 276.39 171.605 269.882V266.767H161.258V270.703H166.571C166.498 273.77 164.409 275.714 160.932 275.714C157.008 275.714 154.533 272.78 154.533 267.612C154.533 262.469 157.105 259.559 160.884 259.559C163.576 259.559 165.399 260.947 166.063 263.266ZM197.915 267.636C197.915 259.547 192.893 254.935 186.337 254.935C179.744 254.935 174.758 259.547 174.758 267.636C174.758 275.69 179.744 280.338 186.337 280.338C192.893 280.338 197.915 275.726 197.915 267.636ZM192.615 267.636C192.615 272.876 190.128 275.714 186.337 275.714C182.533 275.714 180.058 272.876 180.058 267.636C180.058 262.396 182.533 259.559 186.337 259.559C190.128 259.559 192.615 262.396 192.615 267.636ZM217.743 280C225.277 280 229.841 275.339 229.841 267.612C229.841 259.909 225.277 255.273 217.815 255.273H208.977V280H217.743ZM214.205 275.521V259.752H217.538C222.174 259.752 224.625 262.119 224.625 267.612C224.625 273.13 222.174 275.521 217.526 275.521H214.205ZM256.097 267.636C256.097 259.547 251.074 254.935 244.518 254.935C237.925 254.935 232.939 259.547 232.939 267.636C232.939 275.69 237.925 280.338 244.518 280.338C251.074 280.338 256.097 275.726 256.097 267.636ZM250.796 267.636C250.796 272.876 248.309 275.714 244.518 275.714C240.714 275.714 238.239 272.876 238.239 267.636C238.239 262.396 240.714 259.559 244.518 259.559C248.309 259.559 250.796 262.396 250.796 267.636ZM282.352 267.636C282.352 259.547 277.33 254.935 270.773 254.935C264.181 254.935 259.195 259.547 259.195 267.636C259.195 275.69 264.181 280.338 270.773 280.338C277.33 280.338 282.352 275.726 282.352 267.636ZM277.052 267.636C277.052 272.876 274.565 275.714 270.773 275.714C266.97 275.714 264.495 272.876 264.495 267.636C264.495 262.396 266.97 259.559 270.773 259.559C274.565 259.559 277.052 262.396 277.052 267.636ZM285.885 280H291.113V271.234H294.928L299.613 280H305.384L300.132 270.389C302.945 269.182 304.503 266.731 304.503 263.35C304.503 258.436 301.255 255.273 295.641 255.273H285.885V280ZM291.113 267.033V259.547H294.639C297.657 259.547 299.118 260.887 299.118 263.35C299.118 265.801 297.657 267.033 294.663 267.033H291.113ZM324.382 280.338C329.936 280.338 333.908 277.283 333.896 273.058C333.908 269.979 331.952 267.781 328.318 267.322V267.129C331.083 266.634 332.99 264.678 332.978 261.901C332.99 258.001 329.573 254.935 324.454 254.935C319.383 254.935 315.568 257.905 315.495 262.179H320.506C320.566 260.295 322.293 259.076 324.43 259.076C326.543 259.076 327.956 260.356 327.943 262.215C327.956 264.159 326.301 265.475 323.923 265.475H321.617V269.315H323.923C326.724 269.315 328.475 270.715 328.463 272.707C328.475 274.675 326.784 276.028 324.394 276.028C322.088 276.028 320.361 274.82 320.264 273.009H315C315.085 277.332 318.948 280.338 324.382 280.338Z" fill="white"/>
<rect x="60" y="402" width="156" height="63" fill="#0BA464"/>
<path d="M81.9275 446H87.1555V437.234H90.9708L95.6555 446H101.427L96.1746 436.389C98.9878 435.182 100.545 432.731 100.545 429.35C100.545 424.436 97.2975 421.273 91.6832 421.273H81.9275V446ZM87.1555 433.033V425.547H90.681C93.6995 425.547 95.1604 426.887 95.1604 429.35C95.1604 431.801 93.6995 433.033 90.7052 433.033H87.1555ZM104.24 446H120.95V441.69H109.468V435.786H120.045V431.475H109.468V425.583H120.902V421.273H104.24V446ZM129.32 446L131.156 440.362H140.078L141.913 446H147.516L138.992 421.273H132.254L123.718 446H129.32ZM132.484 436.281L135.526 426.923H135.72L138.762 436.281H132.484ZM159.258 446C166.792 446 171.356 441.339 171.356 433.612C171.356 425.909 166.792 421.273 159.33 421.273H150.492V446H159.258ZM155.72 441.521V425.752H159.052C163.689 425.752 166.14 428.119 166.14 433.612C166.14 439.13 163.689 441.521 159.04 441.521H155.72ZM172.285 421.273L181.304 437.259V446H186.496V437.259L195.515 421.273H189.66L184.021 431.922H183.78L178.141 421.273H172.285Z" fill="white"/>
<rect x="530" width="444" height="537" fill="#111111"/>
<path d="M622.203 95.7685H625.801C625.692 91.8082 622.191 88.9347 617.168 88.9347C612.206 88.9347 608.403 91.772 608.403 96.0341C608.403 99.4751 610.866 101.491 614.838 102.566L617.76 103.363C620.404 104.063 622.445 104.933 622.445 107.13C622.445 109.545 620.138 111.138 616.963 111.138C614.089 111.138 611.699 109.859 611.482 107.166H607.739C607.98 111.646 611.445 114.411 616.987 114.411C622.795 114.411 626.139 111.356 626.139 107.166C626.139 102.711 622.167 100.984 619.028 100.212L616.613 99.5838C614.681 99.0888 612.109 98.1832 612.121 95.8168C612.121 93.7159 614.041 92.1584 617.084 92.1584C619.921 92.1584 621.938 93.4865 622.203 95.7685ZM638.625 95.4545H634.821V91.0114H631.211V95.4545H628.495V98.3523H631.211V109.303C631.199 112.672 633.771 114.302 636.62 114.241C637.767 114.229 638.54 114.012 638.963 113.855L638.311 110.873C638.069 110.921 637.623 111.03 637.043 111.03C635.872 111.03 634.821 110.643 634.821 108.555V98.3523H638.625V95.4545ZM647.675 114.411C650.742 114.411 652.468 112.853 653.157 111.464H653.302V114H656.827V101.685C656.827 96.2876 652.577 95.2131 649.631 95.2131C646.275 95.2131 643.184 96.5653 641.976 99.946L645.369 100.719C645.9 99.4027 647.253 98.1349 649.679 98.1349C652.01 98.1349 653.205 99.3544 653.205 101.455V101.54C653.205 102.856 651.853 102.832 648.52 103.218C645.007 103.629 641.409 104.546 641.409 108.76C641.409 112.406 644.15 114.411 647.675 114.411ZM648.46 111.513C646.419 111.513 644.946 110.595 644.946 108.808C644.946 106.876 646.661 106.188 648.75 105.911C649.921 105.754 652.698 105.44 653.217 104.92V107.311C653.217 109.509 651.466 111.513 648.46 111.513ZM661.585 114H665.111V111.114H665.413C666.065 112.298 667.393 114.362 670.774 114.362C675.265 114.362 678.525 110.764 678.525 104.763C678.525 98.7507 675.217 95.2131 670.737 95.2131C667.296 95.2131 666.053 97.3139 665.413 98.4609H665.195V89.2727H661.585V114ZM665.123 104.727C665.123 100.852 666.813 98.2798 669.965 98.2798C673.237 98.2798 674.879 101.045 674.879 104.727C674.879 108.446 673.188 111.283 669.965 111.283C666.862 111.283 665.123 108.627 665.123 104.727ZM699.554 95.4545H695.75V91.0114H692.14V95.4545H689.424V98.3523H692.14V109.303C692.128 112.672 694.7 114.302 697.549 114.241C698.696 114.229 699.469 114.012 699.892 113.855L699.24 110.873C698.998 110.921 698.552 111.03 697.972 111.03C696.801 111.03 695.75 110.643 695.75 108.555V98.3523H699.554V95.4545ZM703.207 114H706.817V102.675C706.817 100.248 708.689 98.4972 711.248 98.4972C711.997 98.4972 712.842 98.63 713.132 98.7145V95.2614C712.77 95.2131 712.057 95.1768 711.598 95.1768C709.425 95.1768 707.566 96.4084 706.89 98.4006H706.697V95.4545H703.207V114ZM715.916 114H719.526V95.4545H715.916V114ZM717.739 92.593C718.983 92.593 720.021 91.6271 720.021 90.4439C720.021 89.2607 718.983 88.2827 717.739 88.2827C716.483 88.2827 715.457 89.2607 715.457 90.4439C715.457 91.6271 716.483 92.593 717.739 92.593ZM724.043 114H727.653V102.566C727.653 100.067 729.404 98.3281 731.456 98.3281C733.46 98.3281 734.849 99.6562 734.849 101.673V114H738.447V102.18C738.447 99.946 739.811 98.3281 742.166 98.3281C744.073 98.3281 745.643 99.3906 745.643 101.902V114H749.253V101.564C749.253 97.326 746.887 95.2131 743.53 95.2131C740.862 95.2131 738.857 96.4929 737.964 98.473H737.771C736.962 96.4446 735.259 95.2131 732.784 95.2131C730.333 95.2131 728.51 96.4325 727.737 98.473H727.508V95.4545H724.043V114ZM771.236 95.4545H767.239V93.7884C767.239 92.1463 767.915 91.2528 769.678 91.2528C770.427 91.2528 770.958 91.4219 771.296 91.5305L772.141 88.6087C771.634 88.4155 770.584 88.1136 769.123 88.1136C766.189 88.1136 763.617 89.8281 763.617 93.3054V95.4545H760.756V98.3523H763.617V114H767.239V98.3523H771.236V95.4545ZM779.453 114.411C782.52 114.411 784.246 112.853 784.935 111.464H785.079V114H788.605V101.685C788.605 96.2876 784.355 95.2131 781.409 95.2131C778.052 95.2131 774.962 96.5653 773.754 99.946L777.147 100.719C777.678 99.4027 779.03 98.1349 781.457 98.1349C783.788 98.1349 784.983 99.3544 784.983 101.455V101.54C784.983 102.856 783.631 102.832 780.298 103.218C776.785 103.629 773.187 104.546 773.187 108.76C773.187 112.406 775.927 114.411 779.453 114.411ZM780.238 111.513C778.197 111.513 776.724 110.595 776.724 108.808C776.724 106.876 778.439 106.188 780.528 105.911C781.699 105.754 784.476 105.44 784.995 104.92V107.311C784.995 109.509 783.244 111.513 780.238 111.513ZM793.073 114H796.683V95.4545H793.073V114ZM794.897 92.593C796.14 92.593 797.179 91.6271 797.179 90.4439C797.179 89.2607 796.14 88.2827 794.897 88.2827C793.641 88.2827 792.615 89.2607 792.615 90.4439C792.615 91.6271 793.641 92.593 794.897 92.593ZM804.81 89.2727H801.2V114H804.81V89.2727ZM821.075 106.309C821.087 109.46 818.745 110.957 816.716 110.957C814.483 110.957 812.937 109.339 812.937 106.816V95.4545H809.327V107.251C809.327 111.851 811.85 114.241 815.412 114.241C818.201 114.241 820.097 112.768 820.954 110.788H821.147V114H824.697V95.4545H821.075V106.309ZM829.208 114H832.818V102.675C832.818 100.248 834.689 98.4972 837.249 98.4972C837.997 98.4972 838.843 98.63 839.132 98.7145V95.2614C838.77 95.2131 838.058 95.1768 837.599 95.1768C835.426 95.1768 833.566 96.4084 832.89 98.4006H832.697V95.4545H829.208V114ZM849.245 114.374C853.29 114.374 856.152 112.382 856.973 109.364L853.556 108.748C852.904 110.499 851.334 111.392 849.282 111.392C846.191 111.392 844.114 109.388 844.017 105.814H857.202V104.534C857.202 97.8331 853.194 95.2131 848.992 95.2131C843.824 95.2131 840.419 99.1491 840.419 104.848C840.419 110.607 843.776 114.374 849.245 114.374ZM844.029 103.109C844.174 100.477 846.082 98.1953 849.016 98.1953C851.817 98.1953 853.652 100.272 853.664 103.109H844.029Z" fill="#FA5D48"/>
<path d="M608.717 197H618.195C623.942 197 626.538 194.138 626.538 190.347C626.538 186.52 623.857 184.359 621.406 184.226V183.984C623.676 183.405 625.572 181.859 625.572 178.768C625.572 175.11 623.036 172.273 617.772 172.273H608.717V197ZM612.447 193.8V185.88H617.965C620.96 185.88 622.831 187.812 622.831 190.166C622.831 192.243 621.418 193.8 617.832 193.8H612.447ZM612.447 182.97V175.448H617.543C620.501 175.448 621.913 177.006 621.913 179.058C621.913 181.449 619.957 182.97 617.446 182.97H612.447ZM630.333 197H633.943V185.675C633.943 183.248 635.814 181.497 638.374 181.497C639.123 181.497 639.968 181.63 640.258 181.714V178.261C639.895 178.213 639.183 178.177 638.724 178.177C636.551 178.177 634.692 179.408 634.015 181.401H633.822V178.455H630.333V197ZM648.273 197.411C651.34 197.411 653.066 195.853 653.754 194.464H653.899V197H657.425V184.685C657.425 179.288 653.175 178.213 650.229 178.213C646.872 178.213 643.781 179.565 642.574 182.946L645.967 183.719C646.498 182.403 647.85 181.135 650.277 181.135C652.607 181.135 653.803 182.354 653.803 184.455V184.54C653.803 185.856 652.45 185.832 649.118 186.218C645.604 186.629 642.006 187.546 642.006 191.76C642.006 195.406 644.747 197.411 648.273 197.411ZM649.058 194.513C647.017 194.513 645.544 193.595 645.544 191.808C645.544 189.876 647.259 189.188 649.347 188.911C650.519 188.754 653.295 188.44 653.815 187.92V190.311C653.815 192.509 652.064 194.513 649.058 194.513ZM661.893 197H665.503V190.42L667.302 188.621L673.605 197H678.036L670.019 186.411L677.529 178.455H673.206L665.817 186.303H665.503V172.273H661.893V197ZM687.708 197.374C691.753 197.374 694.614 195.382 695.435 192.364L692.019 191.748C691.367 193.499 689.797 194.392 687.744 194.392C684.653 194.392 682.577 192.388 682.48 188.814H695.665V187.534C695.665 180.833 691.656 178.213 687.455 178.213C682.287 178.213 678.882 182.149 678.882 187.848C678.882 193.607 682.239 197.374 687.708 197.374ZM682.492 186.109C682.637 183.477 684.545 181.195 687.479 181.195C690.28 181.195 692.115 183.272 692.127 186.109H682.492ZM707.988 203.955H711.598V194.114H711.816C712.468 195.298 713.796 197.362 717.177 197.362C721.668 197.362 724.928 193.764 724.928 187.763C724.928 181.751 721.62 178.213 717.14 178.213C713.699 178.213 712.456 180.314 711.816 181.461H711.514V178.455H707.988V203.955ZM711.526 187.727C711.526 183.852 713.216 181.28 716.368 181.28C719.64 181.28 721.282 184.045 721.282 187.727C721.282 191.446 719.591 194.283 716.368 194.283C713.265 194.283 711.526 191.627 711.526 187.727ZM728.633 197H732.243V185.675C732.243 183.248 734.114 181.497 736.674 181.497C737.423 181.497 738.268 181.63 738.558 181.714V178.261C738.195 178.213 737.483 178.177 737.024 178.177C734.851 178.177 732.991 179.408 732.315 181.401H732.122V178.455H728.633V197ZM748.67 197.374C752.715 197.374 755.577 195.382 756.398 192.364L752.981 191.748C752.329 193.499 750.759 194.392 748.707 194.392C745.616 194.392 743.539 192.388 743.442 188.814H756.627V187.534C756.627 180.833 752.619 178.213 748.417 178.213C743.249 178.213 739.844 182.149 739.844 187.848C739.844 193.607 743.201 197.374 748.67 197.374ZM743.455 186.109C743.599 183.477 745.507 181.195 748.441 181.195C751.242 181.195 753.077 183.272 753.089 186.109H743.455ZM774.19 182.982C773.441 180.097 771.183 178.213 767.175 178.213C762.985 178.213 760.015 180.423 760.015 183.707C760.015 186.339 761.609 188.089 765.086 188.862L768.225 189.55C770.012 189.949 770.845 190.746 770.845 191.905C770.845 193.342 769.312 194.464 766.945 194.464C764.784 194.464 763.396 193.535 762.961 191.712L759.472 192.243C760.075 195.527 762.804 197.374 766.969 197.374C771.449 197.374 774.552 194.996 774.552 191.639C774.552 189.019 772.886 187.401 769.481 186.616L766.535 185.94C764.494 185.457 763.613 184.769 763.625 183.513C763.613 182.089 765.158 181.075 767.211 181.075C769.457 181.075 770.495 182.318 770.918 183.562L774.19 182.982ZM792.078 182.982C791.33 180.097 789.072 178.213 785.063 178.213C780.874 178.213 777.903 180.423 777.903 183.707C777.903 186.339 779.497 188.089 782.974 188.862L786.114 189.55C787.901 189.949 788.734 190.746 788.734 191.905C788.734 193.342 787.2 194.464 784.834 194.464C782.673 194.464 781.284 193.535 780.849 191.712L777.36 192.243C777.964 195.527 780.693 197.374 784.858 197.374C789.337 197.374 792.44 194.996 792.44 191.639C792.44 189.019 790.774 187.401 787.369 186.616L784.423 185.94C782.383 185.457 781.501 184.769 781.514 183.513C781.501 182.089 783.047 181.075 785.099 181.075C787.345 181.075 788.384 182.318 788.806 183.562L792.078 182.982ZM807.818 189.309C807.83 192.46 805.487 193.957 803.459 193.957C801.225 193.957 799.68 192.339 799.68 189.816V178.455H796.07V190.251C796.07 194.851 798.593 197.241 802.155 197.241C804.944 197.241 806.84 195.768 807.697 193.788H807.89V197H811.44V178.455H807.818V189.309ZM815.95 197H819.56V185.675C819.56 183.248 821.432 181.497 823.992 181.497C824.74 181.497 825.585 181.63 825.875 181.714V178.261C825.513 178.213 824.801 178.177 824.342 178.177C822.168 178.177 820.309 179.408 819.633 181.401H819.44V178.455H815.95V197ZM835.988 197.374C840.033 197.374 842.894 195.382 843.715 192.364L840.298 191.748C839.646 193.499 838.077 194.392 836.024 194.392C832.933 194.392 830.857 192.388 830.76 188.814H843.945V187.534C843.945 180.833 839.936 178.213 835.734 178.213C830.567 178.213 827.162 182.149 827.162 187.848C827.162 193.607 830.519 197.374 835.988 197.374ZM830.772 186.109C830.917 183.477 832.825 181.195 835.759 181.195C838.56 181.195 840.395 183.272 840.407 186.109H830.772ZM859.878 172.273H856.268V197H859.878V172.273ZM872.207 197.374C877.435 197.374 880.852 193.547 880.852 187.812C880.852 182.04 877.435 178.213 872.207 178.213C866.979 178.213 863.562 182.04 863.562 187.812C863.562 193.547 866.979 197.374 872.207 197.374ZM872.219 194.344C868.802 194.344 867.208 191.362 867.208 187.8C867.208 184.25 868.802 181.232 872.219 181.232C875.612 181.232 877.205 184.25 877.205 187.8C877.205 191.362 875.612 194.344 872.219 194.344ZM887.998 197H891.668L895.435 183.61H895.713L899.48 197H903.162L908.608 178.455H904.877L901.267 192.013H901.086L897.463 178.455H893.733L890.086 192.074H889.905L886.271 178.455H882.54L887.998 197Z" fill="#FDC95F"/>
<path d="M629.254 263.314C628.409 258.026 624.268 254.935 619.04 254.935C612.641 254.935 607.92 259.728 607.92 267.636C607.92 275.545 612.616 280.338 619.04 280.338C624.473 280.338 628.445 276.933 629.254 272.043L625.487 272.031C624.847 275.195 622.191 276.933 619.064 276.933C614.826 276.933 611.626 273.685 611.626 267.636C611.626 261.636 614.814 258.339 619.076 258.339C622.227 258.339 624.871 260.114 625.487 263.314H629.254ZM638.486 280.411C641.553 280.411 643.279 278.853 643.967 277.464H644.112V280H647.638V267.685C647.638 262.288 643.388 261.213 640.442 261.213C637.085 261.213 633.994 262.565 632.787 265.946L636.18 266.719C636.711 265.403 638.063 264.135 640.49 264.135C642.82 264.135 644.016 265.354 644.016 267.455V267.54C644.016 268.856 642.663 268.832 639.331 269.218C635.817 269.629 632.219 270.546 632.219 274.76C632.219 278.406 634.96 280.411 638.486 280.411ZM639.271 277.513C637.23 277.513 635.757 276.595 635.757 274.808C635.757 272.876 637.472 272.188 639.56 271.911C640.732 271.754 643.509 271.44 644.028 270.92V273.311C644.028 275.509 642.277 277.513 639.271 277.513ZM652.106 280H655.716V268.675C655.716 266.248 657.588 264.497 660.147 264.497C660.896 264.497 661.741 264.63 662.031 264.714V261.261C661.669 261.213 660.956 261.177 660.498 261.177C658.324 261.177 656.465 262.408 655.789 264.401H655.596V261.455H652.106V280ZM671.927 287.305C676.647 287.305 680.294 285.143 680.294 280.411V261.455H676.756V264.461H676.49C675.851 263.314 674.571 261.213 671.118 261.213C666.638 261.213 663.342 264.751 663.342 270.655C663.342 276.571 666.711 279.722 671.093 279.722C674.498 279.722 675.814 277.803 676.466 276.619H676.696V280.266C676.696 283.127 674.704 284.395 671.963 284.395C668.956 284.395 667.785 282.886 667.145 281.859L664.042 283.139C665.02 285.373 667.495 287.305 671.927 287.305ZM671.89 276.728C668.667 276.728 666.988 274.253 666.988 270.607C666.988 267.045 668.63 264.28 671.89 264.28C675.042 264.28 676.732 266.852 676.732 270.607C676.732 274.434 675.005 276.728 671.89 276.728ZM692.607 280.374C697.835 280.374 701.252 276.547 701.252 270.812C701.252 265.04 697.835 261.213 692.607 261.213C687.379 261.213 683.962 265.04 683.962 270.812C683.962 276.547 687.379 280.374 692.607 280.374ZM692.619 277.344C689.202 277.344 687.609 274.362 687.609 270.8C687.609 267.25 689.202 264.232 692.619 264.232C696.012 264.232 697.606 267.25 697.606 270.8C697.606 274.362 696.012 277.344 692.619 277.344ZM720.542 280.362C723.923 280.362 725.251 278.298 725.903 277.114H726.205V280H729.73V255.273H726.12V264.461H725.903C725.251 263.314 724.019 261.213 720.566 261.213C716.087 261.213 712.791 264.751 712.791 270.763C712.791 276.764 716.039 280.362 720.542 280.362ZM721.339 277.283C718.115 277.283 716.437 274.446 716.437 270.727C716.437 267.045 718.079 264.28 721.339 264.28C724.49 264.28 726.181 266.852 726.181 270.727C726.181 274.627 724.454 277.283 721.339 277.283ZM742.355 280.374C747.583 280.374 751 276.547 751 270.812C751 265.04 747.583 261.213 742.355 261.213C737.127 261.213 733.71 265.04 733.71 270.812C733.71 276.547 737.127 280.374 742.355 280.374ZM742.367 277.344C738.95 277.344 737.356 274.362 737.356 270.8C737.356 267.25 738.95 264.232 742.367 264.232C745.76 264.232 747.353 267.25 747.353 270.8C747.353 274.362 745.76 277.344 742.367 277.344ZM762.501 280.374C767.729 280.374 771.146 276.547 771.146 270.812C771.146 265.04 767.729 261.213 762.501 261.213C757.273 261.213 753.856 265.04 753.856 270.812C753.856 276.547 757.273 280.374 762.501 280.374ZM762.513 277.344C759.096 277.344 757.502 274.362 757.502 270.8C757.502 267.25 759.096 264.232 762.513 264.232C765.906 264.232 767.5 267.25 767.5 270.8C767.5 274.362 765.906 277.344 762.513 277.344ZM774.836 280H778.446V268.675C778.446 266.248 780.317 264.497 782.877 264.497C783.625 264.497 784.471 264.63 784.76 264.714V261.261C784.398 261.213 783.686 261.177 783.227 261.177C781.054 261.177 779.194 262.408 778.518 264.401H778.325V261.455H774.836V280ZM804.763 280.338C809.81 280.338 813.516 277.32 813.504 273.214C813.516 270.087 811.621 267.842 808.337 267.335V267.141C810.921 266.477 812.599 264.449 812.587 261.672C812.599 258.038 809.617 254.935 804.859 254.935C800.32 254.935 796.673 257.675 796.553 261.696H800.163C800.247 259.426 802.384 258.05 804.811 258.05C807.335 258.05 808.989 259.583 808.977 261.865C808.989 264.256 807.069 265.825 804.328 265.825H802.239V268.868H804.328C807.757 268.868 809.737 270.607 809.737 273.094C809.737 275.496 807.648 277.126 804.739 277.126C802.058 277.126 799.97 275.75 799.825 273.553H796.033C796.19 277.585 799.764 280.338 804.763 280.338Z" fill="#C896F7"/>
<path d="M610.805 363L613.075 356.456H622.734L624.992 363H628.952L620.054 338.273H615.744L606.845 363H610.805ZM614.162 353.317L617.808 342.764H618.001L621.648 353.317H614.162ZM643.641 355.309C643.653 358.46 641.311 359.957 639.283 359.957C637.049 359.957 635.504 358.339 635.504 355.816V344.455H631.893V356.251C631.893 360.851 634.417 363.241 637.979 363.241C640.768 363.241 642.663 361.768 643.521 359.788H643.714V363H647.264V344.455H643.641V355.309ZM654.624 344.455H650.663L656.362 353.727L650.591 363H654.551L658.717 356.07L662.894 363H666.842L661.011 353.727L666.794 344.455H662.846L658.717 351.675L654.624 344.455ZM687.645 344.455H683.648V342.788C683.648 341.146 684.324 340.253 686.087 340.253C686.836 340.253 687.367 340.422 687.705 340.531L688.55 337.609C688.043 337.415 686.993 337.114 685.532 337.114C682.598 337.114 680.026 338.828 680.026 342.305V344.455H677.165V347.352H680.026V363H683.648V347.352H687.645V344.455ZM694.64 338.273H691.03V363H694.64V338.273ZM706.968 363.374C712.196 363.374 715.613 359.547 715.613 353.812C715.613 348.04 712.196 344.213 706.968 344.213C701.74 344.213 698.323 348.04 698.323 353.812C698.323 359.547 701.74 363.374 706.968 363.374ZM706.98 360.344C703.563 360.344 701.97 357.362 701.97 353.8C701.97 350.25 703.563 347.232 706.98 347.232C710.373 347.232 711.967 350.25 711.967 353.8C711.967 357.362 710.373 360.344 706.98 360.344ZM727.114 363.374C732.342 363.374 735.759 359.547 735.759 353.812C735.759 348.04 732.342 344.213 727.114 344.213C721.887 344.213 718.47 348.04 718.47 353.812C718.47 359.547 721.887 363.374 727.114 363.374ZM727.127 360.344C723.71 360.344 722.116 357.362 722.116 353.8C722.116 350.25 723.71 347.232 727.127 347.232C730.519 347.232 732.113 350.25 732.113 353.8C732.113 357.362 730.519 360.344 727.127 360.344ZM746.392 363.362C749.772 363.362 751.1 361.298 751.752 360.114H752.054V363H755.58V338.273H751.97V347.461H751.752C751.1 346.314 749.869 344.213 746.416 344.213C741.936 344.213 738.64 347.751 738.64 353.763C738.64 359.764 741.888 363.362 746.392 363.362ZM747.188 360.283C743.965 360.283 742.286 357.446 742.286 353.727C742.286 350.045 743.928 347.28 747.188 347.28C750.34 347.28 752.03 349.852 752.03 353.727C752.03 357.627 750.303 360.283 747.188 360.283ZM772.66 338.273H769.05V363H772.66V338.273ZM777.177 363H780.787V344.455H777.177V363ZM779 341.593C780.244 341.593 781.282 340.627 781.282 339.444C781.282 338.261 780.244 337.283 779 337.283C777.745 337.283 776.718 338.261 776.718 339.444C776.718 340.627 777.745 341.593 779 341.593ZM793.079 370.305C797.8 370.305 801.447 368.143 801.447 363.411V344.455H797.909V347.461H797.643C797.003 346.314 795.724 344.213 792.27 344.213C787.791 344.213 784.495 347.751 784.495 353.655C784.495 359.571 787.864 362.722 792.246 362.722C795.651 362.722 796.967 360.803 797.619 359.619H797.849V363.266C797.849 366.127 795.856 367.395 793.116 367.395C790.109 367.395 788.938 365.886 788.298 364.859L785.195 366.139C786.173 368.373 788.648 370.305 793.079 370.305ZM793.043 359.728C789.82 359.728 788.141 357.253 788.141 353.607C788.141 350.045 789.783 347.28 793.043 347.28C796.195 347.28 797.885 349.852 797.885 353.607C797.885 357.434 796.158 359.728 793.043 359.728ZM809.558 351.989C809.558 349.031 811.43 347.34 814.002 347.34C816.489 347.34 817.974 348.922 817.974 351.638V363H821.584V351.204C821.584 346.58 819.048 344.213 815.233 344.213C812.347 344.213 810.609 345.469 809.739 347.473H809.51V338.273H805.948V363H809.558V351.989ZM834.718 344.455H830.915V340.011H827.305V344.455H824.588V347.352H827.305V358.303C827.293 361.672 829.865 363.302 832.714 363.241C833.861 363.229 834.634 363.012 835.056 362.855L834.404 359.873C834.163 359.921 833.716 360.03 833.137 360.03C831.966 360.03 830.915 359.643 830.915 357.555V347.352H834.718V344.455ZM851.97 348.982C851.221 346.097 848.964 344.213 844.955 344.213C840.765 344.213 837.795 346.423 837.795 349.707C837.795 352.339 839.389 354.089 842.866 354.862L846.005 355.55C847.792 355.949 848.625 356.746 848.625 357.905C848.625 359.342 847.092 360.464 844.726 360.464C842.564 360.464 841.176 359.535 840.741 357.712L837.252 358.243C837.856 361.527 840.584 363.374 844.75 363.374C849.229 363.374 852.332 360.996 852.332 357.639C852.332 355.019 850.666 353.401 847.261 352.616L844.315 351.94C842.275 351.457 841.393 350.769 841.405 349.513C841.393 348.089 842.939 347.075 844.991 347.075C847.237 347.075 848.275 348.318 848.698 349.562L851.97 348.982Z" fill="#76B6F6"/>
<path d="M608.717 446H612.447V436.643H617.518C617.603 436.643 617.675 436.643 617.76 436.643L622.783 446H627.033L621.551 435.991C624.582 434.868 626.091 432.344 626.091 429.024C626.091 424.472 623.266 421.273 617.531 421.273H608.717V446ZM612.447 433.431V424.472H617.132C620.815 424.472 622.336 426.223 622.336 429.024C622.336 431.813 620.815 433.431 617.18 433.431H612.447ZM637.761 446.374C641.806 446.374 644.668 444.382 645.489 441.364L642.072 440.748C641.42 442.499 639.85 443.392 637.798 443.392C634.707 443.392 632.63 441.388 632.533 437.814H645.718V436.534C645.718 429.833 641.71 427.213 637.508 427.213C632.34 427.213 628.935 431.149 628.935 436.848C628.935 442.607 632.292 446.374 637.761 446.374ZM632.545 435.109C632.69 432.477 634.598 430.195 637.532 430.195C640.333 430.195 642.168 432.272 642.18 435.109H632.545ZM654.781 446.411C657.847 446.411 659.574 444.853 660.262 443.464H660.407V446H663.933V433.685C663.933 428.288 659.683 427.213 656.737 427.213C653.38 427.213 650.289 428.565 649.082 431.946L652.474 432.719C653.006 431.403 654.358 430.135 656.785 430.135C659.115 430.135 660.31 431.354 660.31 433.455V433.54C660.31 434.856 658.958 434.832 655.626 435.218C652.112 435.629 648.514 436.546 648.514 440.76C648.514 444.406 651.255 446.411 654.781 446.411ZM655.565 443.513C653.525 443.513 652.052 442.595 652.052 440.808C652.052 438.876 653.766 438.188 655.855 437.911C657.026 437.754 659.803 437.44 660.322 436.92V439.311C660.322 441.509 658.572 443.513 655.565 443.513ZM675.343 446.362C678.724 446.362 680.052 444.298 680.704 443.114H681.006V446H684.532V421.273H680.922V430.461H680.704C680.052 429.314 678.821 427.213 675.368 427.213C670.888 427.213 667.592 430.751 667.592 436.763C667.592 442.764 670.84 446.362 675.343 446.362ZM676.14 443.283C672.917 443.283 671.238 440.446 671.238 436.727C671.238 433.045 672.88 430.28 676.14 430.28C679.292 430.28 680.982 432.852 680.982 436.727C680.982 440.627 679.255 443.283 676.14 443.283ZM691.626 452.906C694.608 452.906 696.504 451.349 697.566 448.475L705.233 427.491L701.334 427.455L696.637 441.847H696.444L691.747 427.455H687.883L694.669 446.241L694.222 447.473C693.304 449.876 692.013 450.093 690.032 449.55L689.163 452.508C689.598 452.713 690.54 452.906 691.626 452.906Z" fill="#23D98D"/>
</svg>

